<svg xmlns="http://www.w3.org/2000/svg" xmlns:svg="http://www.w3.org/2000/svg" id="svg2" width="512" height="512" version="1.1" viewBox="0 0 512 512"><metadata id="metadata30"/><defs id="defs28"><clipPath id="clipPath4160" clipPathUnits="userSpaceOnUse"><circle style="opacity:1;fill:#000;fill-opacity:1;stroke:none;stroke-width:3;stroke-miterlimit:4;stroke-dasharray:none;stroke-opacity:1" id="circle4162" cx="102.043" cy="65" r="64.999"/></clipPath></defs><g id="g4" clip-path="url(#clipPath4160)" transform="matrix(3.9385,0,0,3.9385,-145.89827,-0.00249401)" style="fill-rule:evenodd"><g id="g6" style="stroke-width:1pt"><path id="path8" d="m 0,0 247,0 0,10 -247,0 z m 0,20 247,0 0,10 -247,0 z m 0,20 247,0 0,10 -247,0 z m 0,20 247,0 0,10 -247,0 z m 0,20 247,0 0,10 -247,0 z m 0,20 247,0 0,10 -247,0 z m 0,20 247,0 0,10 -247,0 z" style="fill:#bd3d44"/><path id="path10" d="m 0,10 247,0 0,10 -247,0 z m 0,20 247,0 0,10 -247,0 z m 0,20 247,0 0,10 -247,0 z m 0,20 247,0 0,10 -247,0 z m 0,20 247,0 0,10 -247,0 z m 0,20 247,0 0,10 -247,0 z" style="fill:#fff"/></g><path id="path12" d="m 0,0 98.8,0 0,70 L 0,70 Z" style="fill:#192f5d"/><g id="g14" style="fill:#fff"><path id="path16" d="m 8.233,2.996 0.9,2.767 2.908,0 -2.353,1.71 0.899,2.766 -2.354,-1.71 -2.353,1.71 0.899,-2.766 -2.354,-1.71 2.91,0 z m 16.467,0 0.899,2.767 2.909,0 -2.353,1.71 0.898,2.766 -2.353,-1.709 -2.353,1.71 0.898,-2.766 -2.353,-1.71 2.909,0 z m 16.467,0 0.899,2.767 2.909,0 -2.353,1.71 0.899,2.766 -2.354,-1.71 -2.353,1.71 0.899,-2.766 -2.354,-1.71 2.91,0 z m 16.466,0 0.899,2.767 2.909,0 -2.353,1.71 0.899,2.766 -2.354,-1.71 -2.353,1.71 0.899,-2.766 -2.354,-1.71 2.91,0 z m 16.467,0 0.899,2.767 2.909,0 -2.354,1.71 0.9,2.766 -2.354,-1.709 -2.353,1.71 0.898,-2.766 -2.353,-1.71 2.909,0 z m 16.467,0 0.899,2.767 2.909,0 -2.354,1.71 0.9,2.766 -2.354,-1.71 -2.353,1.71 0.898,-2.766 -2.353,-1.71 2.909,0 z m -74.1,7 0.899,2.767 2.909,0 -2.353,1.71 0.898,2.766 -2.353,-1.71 -2.353,1.71 0.898,-2.766 -2.353,-1.71 2.909,0 z m 16.466,0 0.899,2.767 2.909,0 -2.353,1.71 0.899,2.766 -2.354,-1.71 -2.353,1.71 0.899,-2.766 -2.354,-1.71 2.91,0 z m 16.467,0 0.899,2.767 2.909,0 -2.353,1.71 0.899,2.766 -2.354,-1.71 -2.353,1.71 0.899,-2.766 -2.354,-1.71 2.91,0 z m 16.467,0 0.899,2.767 2.909,0 -2.353,1.71 0.898,2.766 -2.353,-1.71 -2.353,1.71 0.899,-2.766 -2.354,-1.71 2.91,0 z m 16.466,0 0.899,2.767 2.909,0 -2.354,1.71 0.9,2.766 -2.354,-1.71 -2.353,1.71 0.898,-2.766 -2.353,-1.71 2.909,0 z m -74.1,7 0.9,2.767 2.908,0 -2.353,1.71 0.899,2.766 -2.354,-1.71 -2.353,1.71 0.899,-2.766 -2.354,-1.71 2.91,0 z m 16.467,0 0.899,2.767 2.909,0 -2.353,1.71 0.898,2.766 -2.353,-1.71 -2.353,1.71 0.898,-2.766 -2.353,-1.71 2.909,0 z m 16.467,0 0.899,2.767 2.909,0 -2.353,1.71 0.899,2.766 -2.354,-1.71 -2.353,1.71 0.899,-2.766 -2.354,-1.71 2.91,0 z m 16.466,0 0.899,2.767 2.909,0 -2.353,1.71 0.899,2.766 -2.354,-1.71 -2.353,1.71 0.899,-2.766 -2.354,-1.71 2.91,0 z m 16.467,0 0.899,2.767 2.909,0 -2.354,1.71 0.9,2.766 -2.354,-1.71 -2.353,1.71 0.898,-2.766 -2.353,-1.71 2.909,0 z m 16.467,0 0.899,2.767 2.909,0 -2.354,1.71 0.9,2.766 -2.354,-1.71 -2.353,1.71 0.898,-2.766 -2.353,-1.71 2.909,0 z m -74.1,7 0.899,2.767 2.909,0 -2.353,1.71 0.898,2.766 -2.353,-1.71 -2.353,1.71 0.898,-2.766 -2.353,-1.71 2.909,0 z m 16.466,0 0.899,2.767 2.909,0 -2.353,1.71 0.899,2.766 -2.354,-1.71 -2.353,1.71 0.899,-2.766 -2.354,-1.71 2.91,0 z m 16.467,0 0.899,2.767 2.909,0 -2.353,1.71 0.899,2.766 -2.354,-1.71 -2.353,1.71 0.899,-2.766 -2.354,-1.71 2.91,0 z m 16.467,0 0.899,2.767 2.909,0 -2.353,1.71 0.898,2.766 -2.353,-1.71 -2.353,1.71 0.899,-2.766 -2.354,-1.71 2.91,0 z m 16.466,0 0.899,2.767 2.909,0 -2.354,1.71 0.9,2.766 -2.354,-1.71 -2.353,1.71 0.898,-2.766 -2.353,-1.71 2.909,0 z m -74.1,7 0.9,2.767 2.908,0 -2.353,1.71 0.899,2.766 -2.354,-1.71 -2.353,1.71 0.899,-2.766 -2.354,-1.71 2.91,0 z m 16.467,0 0.899,2.767 2.909,0 -2.353,1.71 0.898,2.766 -2.353,-1.71 -2.353,1.71 0.898,-2.766 -2.353,-1.71 2.909,0 z m 16.467,0 0.899,2.767 2.909,0 -2.353,1.71 0.899,2.766 -2.354,-1.71 -2.353,1.71 0.899,-2.766 -2.354,-1.71 2.91,0 z m 16.466,0 0.899,2.767 2.909,0 -2.353,1.71 0.899,2.766 -2.354,-1.71 -2.353,1.71 0.899,-2.766 -2.354,-1.71 2.91,0 z m 16.467,0 0.899,2.767 2.909,0 -2.354,1.71 0.9,2.766 -2.354,-1.71 -2.353,1.71 0.898,-2.766 -2.353,-1.71 2.909,0 z m 16.467,0 0.899,2.767 2.909,0 -2.354,1.71 0.9,2.766 -2.354,-1.71 -2.353,1.71 0.898,-2.766 -2.353,-1.71 2.909,0 z m -74.1,7 0.899,2.767 2.909,0 -2.353,1.71 0.898,2.766 -2.353,-1.71 -2.353,1.71 0.898,-2.766 -2.353,-1.71 2.909,0 z m 16.466,0 0.899,2.767 2.909,0 -2.353,1.71 0.899,2.766 -2.354,-1.71 -2.353,1.71 0.899,-2.766 -2.354,-1.71 2.91,0 z m 16.467,0 0.899,2.767 2.909,0 -2.353,1.71 0.899,2.766 -2.354,-1.71 -2.353,1.71 0.899,-2.766 -2.354,-1.71 2.91,0 z m 16.467,0 0.899,2.767 2.909,0 -2.353,1.71 0.898,2.766 -2.353,-1.71 -2.353,1.71 0.899,-2.766 -2.354,-1.71 2.91,0 z m 16.466,0 0.899,2.767 2.909,0 -2.354,1.71 0.9,2.766 -2.354,-1.71 -2.353,1.71 0.898,-2.766 -2.353,-1.71 2.909,0 z"/><g id="g18"><path id="path20" d="m 8.233,44.996 0.9,2.767 2.908,0 -2.353,1.71 0.899,2.766 -2.354,-1.71 -2.353,1.71 0.899,-2.766 -2.354,-1.71 2.91,0 z m 16.467,0 0.899,2.767 2.909,0 -2.353,1.71 0.898,2.766 -2.353,-1.71 -2.353,1.71 0.898,-2.766 -2.353,-1.71 2.909,0 z m 16.467,0 0.899,2.767 2.909,0 -2.353,1.71 0.899,2.766 -2.354,-1.71 -2.353,1.71 0.899,-2.766 -2.354,-1.71 2.91,0 z m 16.466,0 0.899,2.767 2.909,0 -2.353,1.71 0.899,2.766 -2.354,-1.71 -2.353,1.71 0.899,-2.766 -2.354,-1.71 2.91,0 z m 16.467,0 0.899,2.767 2.909,0 -2.354,1.71 0.9,2.766 -2.354,-1.71 -2.353,1.71 0.898,-2.766 -2.353,-1.71 2.909,0 z m 16.467,0 0.899,2.767 2.909,0 -2.354,1.71 0.9,2.766 -2.354,-1.71 -2.353,1.71 0.898,-2.766 -2.353,-1.71 2.909,0 z m -74.1,7 0.899,2.767 2.909,0 -2.353,1.71 0.898,2.766 -2.353,-1.71 -2.353,1.71 0.898,-2.766 -2.353,-1.71 2.909,0 z m 16.466,0 0.899,2.767 2.909,0 -2.353,1.71 0.899,2.766 -2.354,-1.71 -2.353,1.71 0.899,-2.766 -2.354,-1.71 2.91,0 z m 16.467,0 0.899,2.767 2.909,0 -2.353,1.71 0.899,2.766 -2.354,-1.71 -2.353,1.71 0.899,-2.766 -2.354,-1.71 2.91,0 z m 16.467,0 0.899,2.767 2.909,0 -2.353,1.71 0.898,2.766 -2.353,-1.71 -2.353,1.71 0.899,-2.766 -2.354,-1.71 2.91,0 z m 16.466,0 0.899,2.767 2.909,0 -2.354,1.71 0.9,2.766 -2.354,-1.71 -2.353,1.71 0.898,-2.766 -2.353,-1.71 2.909,0 z"/></g><g id="g22"><path id="path24" d="m 8.233,58.996 0.9,2.767 2.908,0 -2.353,1.71 0.899,2.766 -2.354,-1.71 -2.353,1.71 0.899,-2.766 -2.354,-1.71 2.91,0 z m 16.467,0 0.899,2.767 2.909,0 -2.353,1.71 0.898,2.766 -2.353,-1.71 -2.353,1.71 0.898,-2.766 -2.353,-1.71 2.909,0 z m 16.467,0 0.899,2.767 2.909,0 -2.353,1.71 0.899,2.766 -2.354,-1.71 -2.353,1.71 0.899,-2.766 -2.354,-1.71 2.91,0 z m 16.466,0 0.899,2.767 2.909,0 -2.353,1.71 0.899,2.766 -2.354,-1.71 -2.353,1.71 0.899,-2.766 -2.354,-1.71 2.91,0 z m 16.467,0 0.899,2.767 2.909,0 -2.354,1.71 0.9,2.766 -2.354,-1.71 -2.353,1.71 0.898,-2.766 -2.353,-1.71 2.909,0 z m 16.467,0 0.899,2.767 2.909,0 -2.354,1.71 0.9,2.766 -2.354,-1.71 -2.353,1.71 0.898,-2.766 -2.353,-1.71 2.909,0 z"/></g></g></g></svg>