<svg xmlns="http://www.w3.org/2000/svg" xmlns:svg="http://www.w3.org/2000/svg" xmlns:xlink="http://www.w3.org/1999/xlink" id="svg2" width="512" height="512" version="1.1" viewBox="0 0 512 512"><metadata id="metadata21"/><defs id="defs4"><path id="a" d="M 0.95,-0.31 -0.587,0.81 0,-1 0.588,0.81 -0.952,-0.31 Z" style="fill:#ffde00"/><clipPath id="clipPath4159" clipPathUnits="userSpaceOnUse"><circle style="opacity:1;fill:#000;fill-opacity:1;stroke:none;stroke-width:3;stroke-miterlimit:4;stroke-dasharray:none;stroke-opacity:1" id="circle4161" cx="256" cy="256" r="256"/></clipPath></defs><g id="g4151" clip-path="url(#clipPath4159)"><path id="path7" d="m 0,0 512,0 0,512 -512,0 z" style="fill:#de2910"/><use id="use9" width="30" height="20" x="0" y="0" transform="matrix(76.8,0,0,76.8,128,128)" xlink:href="#a"/><use id="use11" width="30" height="20" x="0" y="0" transform="matrix(-13.1584,-21.9392,21.9392,-13.1584,256,51.2)" xlink:href="#a"/><use id="use13" width="30" height="20" x="0" y="0" transform="matrix(-3.6097256,-25.344228,25.344228,-3.6097256,307.19518,102.3862)" xlink:href="#a"/><use id="use15" width="30" height="20" x="0" y="0" transform="matrix(7.04,-24.6272,24.6272,7.04,307.2,179.2)" xlink:href="#a"/><use id="use17" width="30" height="20" x="0" y="0" transform="matrix(16,-19.968,19.968,16,256,230.4)" xlink:href="#a"/></g></svg>